<?xml version="1.0" encoding="UTF-8"?><svg xmlns="http://www.w3.org/2000/svg" xmlns:xlink="http://www.w3.org/1999/xlink" height="454.7" preserveAspectRatio="xMidYMid meet" version="1.0" viewBox="0.0 0.0 454.7 454.7" width="454.7" zoomAndPan="magnify"><g id="change1_1"><path d="M168.49,238.55c0.4,0.95-0.04,1.66-0.73,2.01c-0.04,0.04-0.08,0.08-0.13,0.11 c-11.05,7.64-25.86,3.85-31.7-8.29c-0.27-0.57-0.25-1.12-0.05-1.59c0.12-0.36,0.34-0.71,0.72-0.98c5.24-3.81,13-7.18,19.59-5.38 C162.67,226.2,166.12,232.85,168.49,238.55z M314.78,229.82c-5.24-3.81-13-7.18-19.59-5.38c-6.47,1.76-9.92,8.41-12.3,14.12 c-0.39,0.95,0.04,1.66,0.73,2.01c0.04,0.04,0.08,0.08,0.13,0.11c11.05,7.64,25.86,3.85,31.7-8.29c0.27-0.57,0.25-1.12,0.05-1.58 C315.39,230.43,315.16,230.09,314.78,229.82z M279.69,300.6c-12.14,0.63-25.22,1.33-36.11-5.03c-10.21-5.97-13.3-16.78-14.28-27.82 c8.94-0.76,17.56-6.28,18.4-16.05c0.89-10.32-7.32-16.39-16.72-16.92c-10.01-0.62-24.03,1.41-26.66,13.25 c-2.53,11.36,10.25,18.36,19.64,19.6c0.47,0.06,0.95,0.11,1.43,0.14c-0.2,10.11-1.82,19.51-10.75,25.78 c-9.78,6.87-22.1,7.77-33.65,8.34c-2.4,0.12-2.42,3.87,0,3.75c13.07-0.64,27.07-1.88,37.66-10.43c5.08-4.11,7.75-9.27,9.12-14.96 c1.95,6.59,5.34,12.56,11.34,16.86c11.75,8.43,26.82,7.94,40.58,7.22C282.09,304.22,282.11,300.47,279.69,300.6z M450.73,227.37 c0,123.17-100.2,223.37-223.37,223.37S4,350.53,4,227.37S104.2,4,227.37,4S450.73,104.2,450.73,227.37z M395.2,269.65 c4.28-36.02-11.52-71.36-30.48-101.08c-10.1-15.83-22.72-29.44-37.66-40.76c7.7-29.44-3.7-56.97-16.55-83.21 c-0.27-0.54-0.67-0.83-1.1-0.92c-0.44-0.15-0.94-0.11-1.46,0.25c-24.31,17.02-40.5,44.39-47.9,72.83 c-19.36-3.85-38.58-4.06-58.15-1.78c-1.9-13.93-5.56-27.49-12.04-40.03c-6.94-13.44-16.76-25.03-27.7-35.38 c-0.8-0.76-1.78-0.61-2.45-0.08c-0.18,0.12-0.34,0.26-0.49,0.46c-18.9,25.06-28.17,58.88-26.36,90.11 c-28.78,21.07-48.73,51.6-61.55,84.57c-13.28,34.15-20.06,75.28,2.98,107.05c8.67,11.96,20.92,19.71,34.58,24.78 c-3.21,14.76-0.14,28.6,7.05,41.88c0.31,0.58,0.78,0.85,1.27,0.91c31.72,10.48,64.22,17.21,96.99,18.93 c4.62,6.04,12.91,8.95,20.51,6.91c4.07-1.09,7.53-3.58,10.09-6.81c15.39-0.71,30.8-2.59,46.2-5.79 c17.08-3.55,33.81-8.51,50.21-14.41c0.44-0.16,0.76-0.43,0.96-0.75c0.14-0.16,0.26-0.34,0.35-0.56c5.3-13.27,7.26-26.85,3.84-40.78 c11.51-8.87,22.64-18.3,31.03-30.29C386.8,302.19,393.25,286.03,395.2,269.65z" fill="#1B1817"/></g><g id="change2_1"><path d="M346.32,345.99c3.42,13.92,1.46,27.5-3.84,40.78c-0.09,0.22-0.21,0.4-0.35,0.56 c-0.21,0.32-0.52,0.59-0.96,0.75c-16.41,5.9-33.14,10.86-50.21,14.41c-15.4,3.2-30.81,5.08-46.2,5.79 c-2.55,3.23-6.02,5.71-10.09,6.81c-7.6,2.04-15.89-0.86-20.51-6.91c-32.78-1.72-65.27-8.45-96.99-18.93 c-0.49-0.06-0.96-0.33-1.27-0.91c-7.19-13.28-10.26-27.12-7.05-41.88c0.49,0.18,0.97,0.37,1.46,0.54c0.67,0.34,1.36,0.64,2.04,0.97 c-2.74,13.37,0.07,25.82,6.47,37.88c30.26,9.95,61.49,16.93,93.25,18.84c-0.32-0.73-0.62-1.47-0.85-2.26 c-2.93-10.15,3.76-22.04,14.04-24.65c10.62-2.52,22.18,2.8,23.94,14.42c0.65,4.25-0.18,8.62-2.11,12.43 c31.49-2.02,62.36-9.21,92.13-19.83c4.63-11.98,6.52-24.12,3.74-36.67c0.58-0.33,1.17-0.65,1.75-0.99c0.14-0.06,0.29-0.14,0.43-0.25 c0.15-0.09,0.27-0.19,0.38-0.29C345.8,346.39,346.06,346.19,346.32,345.99z M161.69,64.07c-10.61,16.73-12.14,37.51-11.41,56.96 c11.94-5.12,26.31-7.59,39.07-4.79C182.9,97.68,177.61,76.71,161.69,64.07z M274.55,118.03c12.8-2.14,28.23,0.29,39.65,6.32 c5.23-20.6-1.2-40.9-9.68-59.78C289.23,79.69,280.26,97.44,274.55,118.03z M388.63,282.1c0.67-8.54,0.08-17.2-1.85-25.11 c-4.29-17.61-11.34-35.95-20.44-51.63c-16.55-28.5-48.87-56.35-83.66-55.59c-19.22,0.42-37.29,9.39-51.55,21.9 c-23.48-25.11-62.42-26.16-91.78-11.21c-31.23,15.91-52.58,45.75-66.02,77.33c-4.56,10.71-8.64,22.16-10.72,33.84 c-0.1-17.63,4.58-35.06,10.62-51.52c5.82-15.86,13.26-31.17,22.57-45.29c10.77-16.35,24.14-30.92,40.07-42.35 c0.76-0.54,0.93-1.37,0.75-2.09c-1.81-29.97,6.77-62.19,24.45-86.66c9.76,9.43,18.49,19.86,24.9,31.89 c6.87,12.88,10.65,27,12.44,41.43c0.02,0.16,0.06,0.31,0.11,0.45c0.09,0.84,0.67,1.56,1.77,1.43c20.42-2.52,40.44-2.43,60.63,1.83 c0.24,0.05,0.47,0.05,0.68,0.02c0.72-0.02,1.4-0.42,1.63-1.33c6.78-27.38,21.91-54.2,44.95-71.07 c12.2,25.12,22.81,51.48,14.94,79.67c-0.23,0.82,0.08,1.48,0.6,1.88c0.08,0.08,0.16,0.17,0.26,0.24 c26.29,19.56,43.64,46.95,56.75,76.58C391.46,230.95,394.98,257.31,388.63,282.1z M194.09,118.43 c-7.6-20.94-12.97-44.78-31.92-58.68c-0.86-0.63-1.71-0.35-2.22,0.29c-0.13,0.11-0.24,0.23-0.35,0.39 c-12.49,18.23-13.98,41.65-12.98,63.08c-0.02,0.22,0,0.44,0.06,0.65c0.15,0.82,0.76,1.31,1.45,1.46c0.32,0.09,0.67,0.09,1.04-0.03 c0.09-0.02,0.17-0.05,0.25-0.09c0.01-0.01,0.03-0.01,0.04-0.01c12.59-6.01,28.79-8.86,42.32-4.75c0.72,0.22,1.32,0.02,1.72-0.39 C194.08,119.97,194.41,119.3,194.09,118.43z M306.73,60.43c-0.41-0.89-1.18-1.1-1.89-0.89c-0.36,0.04-0.72,0.2-1.05,0.51 c-17.62,16.58-27.56,36.52-33.6,59.74c-0.01,0.03-0.02,0.06-0.03,0.09c-0.01,0.02-0.01,0.05-0.02,0.07 c-0.23,0.88,0.14,1.57,0.72,1.96c0.4,0.33,0.94,0.5,1.58,0.34c13.12-3.08,30.4-0.38,41.98,6.51c0.67,0.4,1.32,0.33,1.82,0.01 c0.42-0.2,0.76-0.57,0.93-1.13C324.07,104.44,316.45,81.56,306.73,60.43z M381.58,252.65c5.12,16.05,4.63,34.89-1.46,50.63 c-0.13,0.33-0.15,0.62-0.11,0.89c-0.72,1.34-1.47,2.68-2.26,4.01c-8.64,14.44-21.27,25.35-34.49,35.47 c-25.82,15.27-56.79,17.06-86.12,18.58c-31.88,1.65-64.29,0.7-95.85-4.4c-16.81-2.71-34.02-6.45-49.31-14.18 c-0.09-0.04-0.17-0.07-0.25-0.1c-0.06-0.03-0.12-0.07-0.19-0.09c-12.32-4.34-23.74-10.92-32.08-21.16 c-7.03-8.63-11.82-19.33-14.45-30.38c0-0.05,0.01-0.09,0.01-0.14c-0.92-15.51,3.4-31.05,8.87-45.43 c5.53-14.54,12.68-28.7,21.55-41.5c19.06-27.5,49.81-51.08,84.6-50.65c18.69,0.23,37.11,7.23,49.63,21.38 c0.65,0.73,1.46,0.73,2.1,0.35c0.19-0.08,0.38-0.19,0.55-0.35c12.78-11.63,29-20.37,46.43-21.87c16.88-1.45,33.54,5.12,47.46,14.25 c14.16,9.29,26.29,21.99,35.17,36.39C370.59,219.31,376.27,236,381.58,252.65z M168.49,238.55c-2.38-5.71-5.82-12.35-12.3-14.12 c-6.6-1.8-14.35,1.57-19.59,5.38c-0.38,0.27-0.6,0.62-0.72,0.98c-0.2,0.46-0.23,1.01,0.05,1.59c5.84,12.13,20.65,15.93,31.7,8.29 c0.05-0.03,0.08-0.07,0.13-0.11C168.46,240.22,168.89,239.5,168.49,238.55z M279.69,300.6c-12.14,0.63-25.22,1.33-36.11-5.03 c-10.21-5.97-13.3-16.78-14.28-27.82c8.94-0.76,17.56-6.28,18.4-16.05c0.89-10.32-7.32-16.39-16.72-16.92 c-10.01-0.62-24.03,1.41-26.66,13.25c-2.53,11.36,10.25,18.36,19.64,19.6c0.47,0.06,0.95,0.11,1.43,0.14 c-0.2,10.11-1.82,19.51-10.75,25.78c-9.78,6.87-22.1,7.77-33.65,8.34c-2.4,0.12-2.42,3.87,0,3.75c13.07-0.64,27.07-1.88,37.66-10.43 c5.08-4.11,7.75-9.27,9.12-14.96c1.95,6.59,5.34,12.56,11.34,16.86c11.75,8.43,26.82,7.94,40.58,7.22 C282.09,304.22,282.11,300.47,279.69,300.6z M315.5,230.8c-0.12-0.37-0.34-0.71-0.72-0.98c-5.24-3.81-13-7.18-19.59-5.38 c-6.47,1.76-9.92,8.41-12.3,14.12c-0.39,0.95,0.04,1.66,0.73,2.01c0.04,0.04,0.08,0.08,0.13,0.11c11.05,7.64,25.86,3.85,31.7-8.29 C315.73,231.81,315.7,231.26,315.5,230.8z" fill="#FCF8EF"/></g><g id="change3_1"><path d="M388.14,66.59C345.2,23.65,288.1,0,227.37,0S109.54,23.65,66.59,66.59C23.65,109.54,0,166.63,0,227.37 S23.65,345.2,66.59,388.14c42.94,42.94,100.04,66.59,160.77,66.59s117.83-23.65,160.77-66.59c42.94-42.94,66.59-100.04,66.59-160.77 S431.08,109.54,388.14,66.59z M227.37,450.73C104.2,450.73,4,350.53,4,227.37S104.2,4,227.37,4s223.37,100.2,223.37,223.37 S350.53,450.73,227.37,450.73z M364.72,168.57c-10.1-15.83-22.72-29.44-37.66-40.76c7.7-29.44-3.7-56.97-16.55-83.21 c-0.27-0.54-0.67-0.83-1.1-0.92c-0.44-0.15-0.94-0.11-1.46,0.25c-24.31,17.02-40.5,44.39-47.9,72.83 c-19.36-3.85-38.58-4.06-58.15-1.78c-1.9-13.93-5.56-27.49-12.04-40.03c-6.94-13.44-16.76-25.03-27.7-35.38 c-0.8-0.76-1.78-0.61-2.45-0.08c-0.18,0.12-0.34,0.26-0.49,0.46c-18.9,25.06-28.17,58.88-26.36,90.11 c-28.78,21.07-48.73,51.6-61.55,84.57c-13.28,34.15-20.06,75.28,2.98,107.05c8.67,11.96,20.92,19.71,34.58,24.78 c0.49,0.18,0.97,0.37,1.46,0.54c0.67,0.34,1.36,0.64,2.04,0.97c-2.74,13.37,0.07,25.82,6.47,37.88 c30.26,9.95,61.49,16.93,93.25,18.84c-0.32-0.73-0.62-1.47-0.85-2.26c-2.93-10.15,3.76-22.04,14.04-24.65 c10.62-2.52,22.18,2.8,23.94,14.42c0.65,4.25-0.18,8.62-2.11,12.43c31.49-2.02,62.36-9.21,92.13-19.83 c4.63-11.98,6.52-24.12,3.74-36.67c0.58-0.33,1.17-0.65,1.75-0.99c0.14-0.06,0.29-0.14,0.43-0.25c0.15-0.09,0.27-0.19,0.38-0.29 c0.26-0.2,0.52-0.4,0.78-0.6c11.51-8.87,22.64-18.3,31.03-30.29c9.45-13.51,15.9-29.67,17.85-46.05 C399.47,233.63,383.68,198.29,364.72,168.57z M377.76,308.18c-8.64,14.44-21.27,25.35-34.49,35.47 c-25.82,15.27-56.79,17.06-86.12,18.58c-31.88,1.65-64.29,0.7-95.85-4.4c-16.81-2.71-34.02-6.45-49.31-14.18 c-0.09-0.04-0.17-0.07-0.25-0.1c-0.06-0.03-0.12-0.07-0.19-0.09c-12.32-4.34-23.74-10.92-32.08-21.16 c-7.03-8.63-11.82-19.33-14.45-30.38c0-0.05,0.01-0.09,0.01-0.14c-0.92-15.51,3.4-31.05,8.87-45.43 c5.53-14.54,12.68-28.7,21.55-41.5c19.06-27.5,49.81-51.08,84.6-50.65c18.69,0.23,37.11,7.23,49.63,21.38 c0.65,0.73,1.46,0.73,2.1,0.35c0.19-0.08,0.38-0.19,0.55-0.35c12.78-11.63,29-20.37,46.43-21.87c16.88-1.45,33.54,5.12,47.46,14.25 c14.16,9.29,26.29,21.99,35.17,36.39c9.22,14.95,14.9,31.64,20.21,48.28c5.12,16.05,4.63,34.89-1.46,50.63 c-0.13,0.33-0.15,0.62-0.11,0.89C379.29,305.51,378.55,306.85,377.76,308.18z M388.63,282.1c0.67-8.54,0.08-17.2-1.85-25.11 c-4.29-17.61-11.34-35.95-20.44-51.63c-16.55-28.5-48.87-56.35-83.66-55.59c-19.22,0.42-37.29,9.39-51.55,21.9 c-23.48-25.11-62.42-26.16-91.78-11.21c-31.23,15.91-52.58,45.75-66.02,77.33c-4.56,10.71-8.64,22.16-10.72,33.84 c-0.1-17.63,4.58-35.06,10.62-51.52c5.82-15.86,13.26-31.17,22.57-45.29c10.77-16.35,24.14-30.92,40.07-42.35 c0.76-0.54,0.93-1.37,0.75-2.09c-1.81-29.97,6.77-62.19,24.45-86.66c9.76,9.43,18.49,19.86,24.9,31.89 c6.87,12.88,10.65,27,12.44,41.43c0.02,0.16,0.06,0.31,0.11,0.45c0.09,0.84,0.67,1.56,1.77,1.43c20.42-2.52,40.44-2.43,60.63,1.83 c0.24,0.05,0.47,0.05,0.68,0.02c0.72-0.02,1.4-0.42,1.63-1.33c6.78-27.38,21.91-54.2,44.95-71.07 c12.2,25.12,22.81,51.48,14.94,79.67c-0.23,0.82,0.08,1.48,0.6,1.88c0.08,0.08,0.16,0.17,0.26,0.24 c26.29,19.56,43.64,46.95,56.75,76.58C391.46,230.95,394.98,257.31,388.63,282.1z M162.18,59.75c-0.86-0.63-1.71-0.35-2.22,0.29 c-0.13,0.11-0.24,0.23-0.35,0.39c-12.49,18.23-13.98,41.65-12.98,63.08c-0.02,0.22,0,0.44,0.06,0.65c0.15,0.82,0.76,1.31,1.45,1.46 c0.32,0.09,0.67,0.09,1.04-0.03c0.09-0.02,0.17-0.05,0.25-0.09c0.01-0.01,0.03-0.01,0.04-0.01c12.59-6.01,28.79-8.86,42.32-4.75 c0.72,0.22,1.32,0.02,1.72-0.39c0.57-0.38,0.9-1.06,0.58-1.92C186.5,97.5,181.12,73.65,162.18,59.75z M150.28,121.03 c-0.73-19.44,0.8-40.22,11.41-56.96c15.91,12.63,21.21,33.61,27.66,52.17C176.59,113.44,162.22,115.91,150.28,121.03z M304.83,59.53 c-0.36,0.04-0.72,0.2-1.05,0.51c-17.62,16.58-27.56,36.52-33.6,59.74c-0.01,0.03-0.02,0.06-0.03,0.09 c-0.01,0.02-0.01,0.05-0.02,0.07c-0.23,0.88,0.14,1.57,0.72,1.96c0.4,0.33,0.94,0.5,1.58,0.34c13.12-3.08,30.4-0.38,41.98,6.51 c0.67,0.4,1.32,0.33,1.82,0.01c0.42-0.2,0.76-0.57,0.93-1.13c6.89-23.21-0.74-46.09-10.46-67.23 C306.32,59.54,305.54,59.33,304.83,59.53z M314.2,124.35c-11.42-6.03-26.85-8.46-39.65-6.32c5.71-20.59,14.68-38.35,29.96-53.46 C312.99,83.46,319.43,103.76,314.2,124.35z" fill="#F83744"/></g></svg>