<?xml version="1.0" encoding="UTF-8"?><svg xmlns="http://www.w3.org/2000/svg" xmlns:xlink="http://www.w3.org/1999/xlink" height="573.4" preserveAspectRatio="xMidYMid meet" version="1.0" viewBox="0.0 0.0 573.5 573.4" width="573.5" zoomAndPan="magnify"><g id="change1_1"><path d="M550.9,175.1c-14.4-34.1-35.1-64.8-61.4-91.1c-26.3-26.3-57-47-91.1-61.4C363,7.6,325.4,0,286.7,0s-76.3,7.6-111.6,22.5 C141,37,110.3,57.7,84,84s-47,57-61.4,91.1C7.6,210.5,0,248,0,286.7S7.6,363,22.5,398.4C37,432.5,57.7,463.2,84,489.5 c26.3,26.3,57,47,91.1,61.4c35.4,15,72.9,22.5,111.6,22.5c38.6,0,76.5-8.3,112.5-24.8c33.7-15.4,64.2-37.1,90.7-64.6 c53.1-55,83.6-127,83.6-197.4C573.5,248,565.9,210.5,550.9,175.1z M286.7,32c140.7,0,254.7,114.1,254.7,254.7 c0,127.4-114.1,254.7-254.7,254.7S32,427.4,32,286.7S146.1,32,286.7,32z M511.6,286.7c0,124.2-100.7,224.8-224.8,224.8 S61.9,410.9,61.9,286.7S162.6,61.9,286.7,61.9S511.6,162.6,511.6,286.7z" fill="inherit"/></g><g id="change2_1"><path d="M286.7,32C146.1,32,32,146.1,32,286.7s114.1,254.7,254.7,254.7s254.7-127.4,254.7-254.7 C541.5,146.1,427.4,32,286.7,32z M286.7,511.6c-124.2,0-224.8-100.7-224.8-224.8S162.6,61.9,286.7,61.9s224.8,100.7,224.8,224.8 S410.9,511.6,286.7,511.6z M290.3,228V116.7l105,172L290.3,228L290.3,228z M178.2,288.7L178.2,288.7l105-172V228L178.2,288.7z M290.3,373.8l105-61.8l-105,144.7V373.8z M283.2,373.8v83L178.2,312L283.2,373.8z M290.3,235.7l104.9,60.7l0,0l-13.8,8l-91.2,52.7 L290.3,235.7L290.3,235.7z M283.2,357.1l-82.8-47.9l-22.2-12.8l105-60.7L283.2,357.1L283.2,357.1z" fill="#FFF"/></g></svg>